<svg width="100" height="100" viewBox="0 0 100 100" fill="none" xmlns="http://www.w3.org/2000/svg">
<rect width="100" height="100" rx="15" fill="url(#paint0_linear_42_2)"/>
<path d="M66.5109 27H33.4863C32.2021 27 31.1572 28.2696 31.4021 29.5218L35.8047 52.5096C36.0623 53.836 37.4063 54.6317 38.711 54.296L61.289 48.704C62.5938 48.3683 63.5039 47.1341 63.1926 45.8523L60.7664 36.3294C60.4383 34.9995 61.4289 33.731 62.7555 33.4874L67.9328 32.482C69.0875 32.268 70 31.2086 70 30.0227V28.7358C70 27.7772 69.2297 27 68.2703 27H66.5109ZM32.0672 67.518L27.0672 72.732C26.7314 73.0818 26.9185 73.6317 27.3629 73.771L39.5977 77.7651C42.0898 78.5983 44.7383 77.7417 46.4047 75.7503L64.1953 54.1477C64.5781 53.6911 64.343 53.0412 63.7836 52.9144L51.8328 50.2347C49.2539 49.3944 46.6719 50.3089 45.0336 52.2086L32.0672 67.518Z" fill="white"/>
<defs>
<linearGradient id="paint0_linear_42_2" x1="0" y1="0" x2="100" y2="100" gradientUnits="userSpaceOnUse">
<stop stop-color="#9945FF"/>
<stop offset="1" stop-color="#14F195"/>
</linearGradient>
</defs>
</svg>